<svg id="Capa_1" enable-background="new 0 0 512 512" height="512" viewBox="0 0 512 512" width="512" xmlns="http://www.w3.org/2000/svg" xmlns:xlink="http://www.w3.org/1999/xlink"><linearGradient id="SVGID_1_" gradientUnits="userSpaceOnUse" x1="256" x2="256" y1="512" y2="0"><stop offset="0" stop-color="#addcff"/><stop offset=".5028" stop-color="#eaf6ff"/><stop offset="1" stop-color="#eaf6ff"/></linearGradient><linearGradient id="SVGID_2_" gradientUnits="userSpaceOnUse" x1="256" x2="256" y1="371.5" y2="140.5"><stop offset="0" stop-color="#00c0ff"/><stop offset="1" stop-color="#5558ff"/></linearGradient><g><g><circle cx="256" cy="256" fill="url(#SVGID_1_)" r="256"/></g><g><g><path d="m256 264.885c-4.901 0-8.882 3.983-8.882 8.885s3.981 8.885 8.882 8.885 8.882-3.982 8.882-8.885-3.981-8.885-8.882-8.885zm0-35.539c-24.487 0-44.412 19.93-44.412 44.423s19.924 44.423 44.412 44.423 44.412-19.93 44.412-44.423-19.925-44.423-44.412-44.423zm0 71.077c-14.694 0-26.647-11.956-26.647-26.654s11.953-26.654 26.647-26.654 26.647 11.956 26.647 26.654-11.953 26.654-26.647 26.654zm142.118-124.384h-83.333l-15.31-30.628c-1.51-3.011-4.58-4.911-7.946-4.911h-71.059c-3.366 0-6.436 1.9-7.946 4.911l-15.31 30.628h-38.921v-8.885c0-4.911-3.973-8.885-8.883-8.885-4.909 0-8.882 3.974-8.882 8.885v8.885h-26.647c-4.91 0-8.882 3.974-8.882 8.885v177.692c0 4.911 3.973 8.885 8.882 8.885h284.235c4.91 0 8.882-3.974 8.882-8.885v-177.693c.002-4.911-3.971-8.884-8.88-8.884zm-142.118 159.922c-34.28 0-62.177-27.903-62.177-62.192s27.897-62.192 62.177-62.192 62.177 27.903 62.177 62.192-27.897 62.192-62.177 62.192zm106.588-106.615h-17.765c-4.909 0-8.882-3.974-8.882-8.885s3.973-8.885 8.882-8.885h17.765c4.909 0 8.882 3.974 8.882 8.885.001 4.911-3.972 8.885-8.882 8.885z" fill="url(#SVGID_2_)"/></g></g></g></svg>