<svg height='300px' width='300px'  fill="#000000" xmlns="http://www.w3.org/2000/svg" xmlns:xlink="http://www.w3.org/1999/xlink" version="1.1" x="0px" y="0px" viewBox="0 0 512 512" style="enable-background:new 0 0 512 512;" xml:space="preserve"><g><g><g><g><path d="M433.772,147.092c-37.273-56.48-107.06-94.428-173.654-94.428c-61.739,0-118.875,28.139-156.758,77.203L79.112,111.12      C122.133,55.399,189.7,22,260.118,22c76.455,0,156.517,43.48,199.225,108.195L433.772,147.092z"></path><path d="M446.558,154.469h-42.312v-30.664h30.417l7.48-29.249l29.686,7.602l-10.428,40.78      C459.666,149.723,453.557,154.469,446.558,154.469z"></path></g><g><path d="M319.695,471.714l-9.138-29.268c85.641-26.774,147.8-106.97,147.8-190.69c0-21.167-3.286-41.998-9.768-61.911      l29.137-9.497C485.207,203.333,489,227.358,489,251.755C489,352.689,414.314,442.133,319.695,471.714z"></path><path d="M350.661,490l-41.852-18.952c-7.191-3.257-10.734-11.448-8.183-18.922l14.214-41.655l28.999,9.908l-9.716,28.475      l29.172,13.21L350.661,490z"></path></g><g><path d="M260.118,481.509c-125.14,0-228.883-104.873-228.883-229.754c0-28.711,13.135-62.932,22.726-87.918l1.275-3.325      l28.615,10.97l-1.285,3.35c-8.731,22.746-20.688,53.898-20.688,76.923c0,109.779,88.93,199.09,198.24,199.09      c2.723,0,5.485-0.057,8.21-0.168l1.251,30.638C266.439,481.444,263.256,481.509,260.118,481.509z"></path><path d="M76.329,212.289l-14.122-27.178l-28.474,10.655L23,167.045l41.177-15.409c7.252-2.714,15.388,0.414,18.96,7.288      l20.379,39.219L76.329,212.289z"></path></g></g><g><path d="M131.956,330.483l115.023,55.383l0.009-117.753l-115.032-63.269V330.483z"></path><path d="M285.715,268.112l0.002,117.755l115.038-55.384V204.844L285.715,268.112z"></path><path d="M154.565,173.795l111.53,61.351l111.908-61.349l-111.91-53.682L154.565,173.795z"></path></g></g></g></svg>