<?xml version="1.0" encoding="UTF-8"?>
<svg xmlns="http://www.w3.org/2000/svg" xmlns:xlink="http://www.w3.org/1999/xlink" width="500pt" height="500pt" viewBox="0 0 500 500" version="1.1">
<g id="surface2672806">
<path style=" stroke:none;fill-rule:nonzero;fill:rgb(100%,100%,100%);fill-opacity:1;" d="M 416.25 107.695312 C 376.445312 75.664062 313.476562 70.234375 310.78125 70.039062 C 306.601562 69.6875 302.617188 72.03125 300.898438 75.898438 C 300.742188 76.132812 299.375 79.296875 297.851562 84.21875 C 324.179688 88.671875 356.523438 97.617188 385.78125 115.78125 C 390.46875 118.671875 391.914062 124.84375 389.023438 129.53125 C 387.109375 132.617188 383.867188 134.296875 380.507812 134.296875 C 378.710938 134.296875 376.875 133.789062 375.234375 132.773438 C 324.921875 101.5625 262.109375 100 250 100 C 237.890625 100 175.039062 101.5625 124.765625 132.773438 C 120.078125 135.703125 113.90625 134.257812 111.015625 129.570312 C 108.085938 124.84375 109.53125 118.710938 114.21875 115.78125 C 143.476562 97.65625 175.820312 88.671875 202.148438 84.257812 C 200.625 79.296875 199.257812 76.171875 199.140625 75.898438 C 197.382812 72.03125 193.4375 69.609375 189.21875 70.039062 C 186.523438 70.234375 123.554688 75.664062 83.203125 108.125 C 62.148438 127.617188 20 241.523438 20 340 C 20 341.757812 20.46875 343.4375 21.328125 344.960938 C 50.390625 396.054688 129.726562 409.414062 147.8125 410 C 147.890625 410 148.007812 410 148.125 410 C 151.328125 410 154.335938 408.476562 156.210938 405.898438 L 174.492188 380.742188 C 125.15625 368.007812 99.960938 346.367188 98.515625 345.078125 C 94.375 341.445312 93.984375 335.117188 97.65625 330.976562 C 101.289062 326.835938 107.617188 326.445312 111.757812 330.078125 C 112.34375 330.625 158.75 370 250 370 C 341.40625 370 387.8125 330.46875 388.28125 330.078125 C 392.421875 326.484375 398.710938 326.835938 402.382812 331.015625 C 406.015625 335.15625 405.625 341.445312 401.484375 345.078125 C 400.039062 346.367188 374.84375 368.007812 325.507812 380.742188 L 343.789062 405.898438 C 345.664062 408.476562 348.671875 410 351.875 410 C 351.992188 410 352.109375 410 352.1875 410 C 370.273438 409.414062 449.609375 396.054688 478.671875 344.960938 C 479.53125 343.4375 480 341.757812 480 340 C 480 241.523438 437.851562 127.617188 416.25 107.695312 Z M 185 300 C 165.664062 300 150 282.109375 150 260 C 150 237.890625 165.664062 220 185 220 C 204.335938 220 220 237.890625 220 260 C 220 282.109375 204.335938 300 185 300 Z M 315 300 C 295.664062 300 280 282.109375 280 260 C 280 237.890625 295.664062 220 315 220 C 334.335938 220 350 237.890625 350 260 C 350 282.109375 334.335938 300 315 300 Z M 315 300 "/>
</g>
</svg>
