<svg id="Capa_1" enable-background="new 0 0 512 512" height="512" viewBox="0 0 512 512" width="512" xmlns="http://www.w3.org/2000/svg" xmlns:xlink="http://www.w3.org/1999/xlink"><linearGradient id="SVGID_1_" gradientUnits="userSpaceOnUse" x1="256" x2="256" y1="512" y2="0"><stop offset="0" stop-color="#fd3a84"/><stop offset="1" stop-color="#ffa68d"/></linearGradient><linearGradient id="lg1"><stop offset="0" stop-color="#ffc2cc"/><stop offset="1" stop-color="#fff2f4"/></linearGradient><linearGradient id="SVGID_2_" gradientUnits="userSpaceOnUse" x1="256" x2="256" xlink:href="#lg1" y1="301" y2="91"/><linearGradient id="SVGID_3_" gradientUnits="userSpaceOnUse" x1="256" x2="256" xlink:href="#lg1" y1="421" y2="331"/><g><g><path d="m355.826 512h-199.651c-3.979 0-7.794-1.58-10.606-4.394l-141.175-141.174c-2.814-2.813-4.394-6.628-4.394-10.606v-199.652c0-3.978 1.58-7.793 4.394-10.606l141.174-141.174c2.813-2.814 6.628-4.394 10.607-4.394h199.651c3.979 0 7.794 1.581 10.606 4.394l141.174 141.174c2.813 2.813 4.394 6.628 4.394 10.606v199.651c0 3.978-1.58 7.793-4.394 10.606l-141.173 141.175c-2.813 2.813-6.628 4.394-10.607 4.394z" fill="url(#SVGID_1_)"/></g><g id="Error"><g><path d="m256 301c-24.813 0-45-20.187-45-45v-120c0-24.813 20.187-45 45-45s45 20.187 45 45v120c0 24.813-20.187 45-45 45z" fill="url(#SVGID_2_)"/></g><g><path d="m256 421c-24.813 0-45-20.187-45-45s20.187-45 45-45 45 20.187 45 45-20.187 45-45 45z" fill="url(#SVGID_3_)"/></g></g></g></svg>