<?xml version="1.0" encoding="UTF-8"?>
<svg xmlns="http://www.w3.org/2000/svg" xmlns:xlink="http://www.w3.org/1999/xlink" width="240pt" height="240pt" viewBox="0 0 240 240" version="1.1">
<g id="surface2710135">
<path style=" stroke:none;fill-rule:nonzero;fill:rgb(100%,100%,100%);fill-opacity:1;" d="M 120 24 C 66.984375 24 24 66.984375 24 120 C 24 164.984375 54.976562 202.625 96.734375 213.039062 C 96.289062 211.742188 96 210.238281 96 208.375 L 96 191.96875 C 92.105469 191.96875 85.574219 191.96875 83.9375 191.96875 C 77.367188 191.96875 71.527344 189.144531 68.695312 183.894531 C 65.550781 178.0625 65.007812 169.144531 57.214844 163.6875 C 54.902344 161.871094 56.664062 159.800781 59.328125 160.078125 C 64.246094 161.472656 68.328125 164.847656 72.167969 169.855469 C 75.992188 174.871094 77.792969 176.007812 84.9375 176.007812 C 88.398438 176.007812 93.585938 175.808594 98.464844 175.039062 C 101.089844 168.375 105.625 162.238281 111.167969 159.34375 C 79.199219 156.054688 63.945312 140.152344 63.945312 118.558594 C 63.945312 109.265625 67.902344 100.273438 74.632812 92.695312 C 72.425781 85.175781 69.648438 69.839844 75.480469 64 C 89.863281 64 98.558594 73.328125 100.648438 75.847656 C 107.816406 73.390625 115.6875 72 123.960938 72 C 132.246094 72 140.152344 73.390625 147.335938 75.863281 C 149.398438 73.359375 158.105469 64 172.519531 64 C 178.375 69.847656 175.566406 85.246094 173.335938 92.753906 C 180.023438 100.3125 183.960938 109.28125 183.960938 118.558594 C 183.960938 140.136719 168.726562 156.03125 136.808594 159.335938 C 145.59375 163.921875 152 176.800781 152 186.503906 L 152 208.375 C 152 209.207031 151.816406 209.808594 151.71875 210.519531 C 189.128906 197.40625 216 161.886719 216 120 C 216 66.984375 173.015625 24 120 24 Z M 120 24 "/>
</g>
</svg>
