<?xml version="1.0" encoding="UTF-8"?>
<svg xmlns="http://www.w3.org/2000/svg" xmlns:xlink="http://www.w3.org/1999/xlink" width="500pt" height="500pt" viewBox="0 0 500 500" version="1.1">
<g id="surface14788558">
<path style=" stroke:none;fill-rule:nonzero;fill:rgb(100%,100%,100%);fill-opacity:1;" d="M 54.648438 20 C 51.839844 20 49.160156 21.179688 47.265625 23.253906 C 45.371094 25.328125 44.433594 28.101562 44.6875 30.898438 L 79.882812 425.15625 C 80.25 429.277344 83.113281 432.746094 87.089844 433.886719 L 247.1875 479.609375 C 248.980469 480.121094 250.882812 480.121094 252.675781 479.609375 L 412.929688 433.886719 C 416.90625 432.746094 419.769531 429.277344 420.136719 425.15625 L 455.3125 30.898438 C 455.566406 28.101562 454.628906 25.328125 452.734375 23.253906 C 450.839844 21.179688 448.160156 20 445.351562 20 Z M 65.585938 40 L 434.414062 40 L 400.839844 416.542969 L 249.941406 459.609375 L 99.199219 416.542969 Z M 190 100 C 184.476562 100 180 104.476562 180 110 L 180 296.289062 L 122.675781 280.410156 C 119.664062 279.574219 116.4375 280.195312 113.953125 282.082031 C 111.464844 283.972656 110.003906 286.914062 110 290.039062 L 110 339.492188 C 110.003906 343.980469 113 347.917969 117.324219 349.121094 L 227.324219 379.628906 C 230.335938 380.464844 233.5625 379.84375 236.046875 377.957031 C 238.535156 376.066406 239.996094 373.125 240 370 L 240 110 C 240 104.476562 235.523438 100 230 100 Z M 270 100 C 264.476562 100 260 104.476562 260 110 L 260 280 C 259.996094 282.949219 261.296875 285.75 263.554688 287.652344 C 265.8125 289.554688 268.792969 290.363281 271.699219 289.863281 L 329.179688 279.960938 L 327.988281 297.675781 L 267.34375 314.355469 C 263.011719 315.550781 260.003906 319.488281 260 323.984375 L 260 370 C 259.996094 373.121094 261.453125 376.066406 263.9375 377.960938 C 266.421875 379.851562 269.644531 380.476562 272.65625 379.648438 L 372.65625 352.148438 C 376.691406 351.035156 379.605469 347.527344 379.960938 343.359375 L 390.507812 220.859375 C 390.769531 217.824219 389.632812 214.832031 387.417969 212.738281 C 385.207031 210.640625 382.160156 209.671875 379.140625 210.097656 L 320 218.476562 L 320 160 L 386.542969 160 C 391.730469 160 396.058594 156.027344 396.503906 150.859375 L 399.960938 110.859375 C 400.203125 108.070312 399.261719 105.304688 397.367188 103.242188 C 395.472656 101.175781 392.800781 100 390 100 Z M 200 120 L 220 120 L 220 356.855469 L 130 331.894531 L 130 303.183594 L 187.324219 319.082031 C 190.335938 319.917969 193.5625 319.296875 196.046875 317.410156 C 198.535156 315.519531 199.996094 312.578125 200 309.453125 Z M 280 120 L 379.101562 120 L 377.363281 140 L 310 140 C 304.476562 140 300 144.476562 300 150 L 300 230 C 300 232.898438 301.257812 235.652344 303.445312 237.550781 C 305.632812 239.453125 308.539062 240.308594 311.40625 239.902344 L 369.511719 231.660156 L 360.625 334.707031 L 280 356.875 L 280 331.621094 L 340.15625 315.078125 C 344.253906 313.949219 347.191406 310.355469 347.480469 306.113281 L 349.980469 268.613281 C 350.1875 265.550781 348.976562 262.566406 346.699219 260.511719 C 344.417969 258.457031 341.324219 257.5625 338.300781 258.085938 L 280 268.125 Z M 280 120 "/>
</g>
</svg>
