<?xml version="1.0" encoding="utf-8"?>
<svg viewBox="0 0 184.2 51.8" xmlns="http://www.w3.org/2000/svg">
  <defs>
    <style id="style8026">.cls-1{isolation:isolate;}.cls-2{fill:#01e397;}.cls-3{fill:#010032;}.cls-4{fill:#00e599;}.cls-5{fill:#00af92;}</style>
  </defs>
  <g id="Layer_2" data-name="Layer 2">
    <g style="isolation:isolate" id="g8036" class="cls-1">
      <path style="fill:#01e397" id="path8032" d="m 146.6,18.3 v 7.2 h 10.9 V 29 h -10.9 v 10.7 h -4 V 14.8 h 18 v 3.5 z" class="cls-2"/>
      <path style="fill:#01e397" id="path8034" d="m 180,15.7 a 10.4,10.4 0 0 1 4,3.8 l -3,2.7 a 8.1,8.1 0 0 0 -2.6,-3.3 8.8,8.8 0 0 0 -4.3,-1 6.8,6.8 0 0 0 -4,1.1 2.8,2.8 0 0 0 -1.4,2.6 2.6,2.6 0 0 0 1.4,2.4 13.5,13.5 0 0 0 4.9,1.5 18.4,18.4 0 0 1 5.4,1.6 6.2,6.2 0 0 1 2.9,2.3 5.9,5.9 0 0 1 0.9,3.4 6.5,6.5 0 0 1 -1.3,3.8 7.9,7.9 0 0 1 -3.5,2.6 13.9,13.9 0 0 1 -5.2,0.8 c -5,0 -8.6,-1.6 -10.7,-5 l 2.9,-2.8 a 7.7,7.7 0 0 0 3.1,3.3 9.4,9.4 0 0 0 4.7,1 8.2,8.2 0 0 0 4.2,-0.9 2.9,2.9 0 0 0 1.5,-2.6 2.5,2.5 0 0 0 -1.3,-2.2 22.9,22.9 0 0 0 -4.8,-1.5 23.5,23.5 0 0 1 -5.5,-1.5 7.6,7.6 0 0 1 -3,-2.4 5.9,5.9 0 0 1 -0.9,-3.4 6.4,6.4 0 0 1 1.2,-3.8 8.3,8.3 0 0 1 3.3,-2.8 12.1,12.1 0 0 1 5.2,-1 12.2,12.2 0 0 1 5.9,1.3 z" class="cls-2"/>
    </g>
    <path style="fill: rgb(14, 0, 0);" id="path8038" d="M 73.3,16.3 A 9.2,9.2 0 0 1 76,23.4 V 39.3 H 72 V 24.8 c 0,-2.6 -0.5,-4.5 -1.6,-5.7 a 6.1,6.1 0 0 0 -4.5,-1.7 9.1,9.1 0 0 0 -3.7,0.8 7.3,7.3 0 0 0 -2.9,2.9 10.4,10.4 0 0 0 -1.1,4.9 v 13.3 h -4 V 15.1 l 3.6,1.5 v 1.7 a 7.9,7.9 0 0 1 3.6,-3.3 9.8,9.8 0 0 1 4.9,-1.1 10.3,10.3 0 0 1 7,2.4 z" class="cls-3"/>
    <path style="fill: rgb(10, 0, 0);" id="path8040" d="M 104.4,28.3 H 85.6 a 9,9 0 0 0 2.5,5.9 7.9,7.9 0 0 0 5.6,2.1 10.2,10.2 0 0 0 4.6,-0.9 5.7,5.7 0 0 0 2.5,-2.8 l 3.3,1.8 a 10.3,10.3 0 0 1 -4,4 13.2,13.2 0 0 1 -6.4,1.4 c -3.7,0 -6.7,-1.1 -8.8,-3.4 -2.1,-2.3 -3.2,-5.5 -3.2,-9.6 0,-4.1 1,-7.2 3,-9.5 2,-2.3 5,-3.4 8.7,-3.4 a 11.7,11.7 0 0 1 6.1,1.5 10.2,10.2 0 0 1 3.8,4.2 13.1,13.1 0 0 1 1.3,5.9 12.7,12.7 0 0 1 -0.2,2.8 z m -16.3,-9 a 9.1,9.1 0 0 0 -2.4,5.5 h 15.1 a 10.2,10.2 0 0 0 -2.3,-5.5 6.9,6.9 0 0 0 -5.1,-1.9 7.5,7.5 0 0 0 -5.3,1.9 z" class="cls-3"/>
    <path style="fill: rgb(12, 15, 0);" id="path8042" d="m 131,17.3 c 2.2,2.3 3.2,5.5 3.2,9.5 0,4 -1,7.3 -3.2,9.6 -2.2,2.3 -5.1,3.4 -8.8,3.4 -3.7,0 -6.7,-1.1 -8.9,-3.4 -2.2,-2.3 -3.2,-5.5 -3.2,-9.6 0,-4.1 1.1,-7.2 3.2,-9.5 2.1,-2.3 5.1,-3.4 8.9,-3.4 3.8,0 6.7,1.1 8.8,3.4 z m -14.8,2.6 a 10.5,10.5 0 0 0 -2.1,6.9 10.6,10.6 0 0 0 2.1,7 7.5,7.5 0 0 0 6,2.6 7.3,7.3 0 0 0 5.9,-2.6 10.6,10.6 0 0 0 2.1,-7 10.5,10.5 0 0 0 -2.1,-6.9 7.3,7.3 0 0 0 -5.9,-2.6 7.5,7.5 0 0 0 -6,2.6 z" class="cls-3"/>
    <polygon style="fill:#00e599" id="polygon8044" points="22.5,51.8 22.5,16.9 46.8,7.9 24.8,0 0,9.1 0,43.7 " class="cls-4"/>
    <polygon style="fill:#00af92" id="polygon8046" points="46.8,44.9 46.8,9.6 24.3,17.9 24.3,36.8 " class="cls-5"/>
  </g>
</svg>