<?xml version="1.0" encoding="utf-8"?>
<!-- Generator: Adobe Illustrator 24.3.0, SVG Export Plug-In . SVG Version: 6.00 Build 0)  -->
<svg version="1.1" id="Next" xmlns="http://www.w3.org/2000/svg" xmlns:xlink="http://www.w3.org/1999/xlink" x="0px" y="0px"
	 viewBox="0 0 550 550" style="enable-background:new 0 0 550 550;" xml:space="preserve">
<style type="text/css">
	.st0{fill:#FFFFFF;}
</style>
<path class="st0" d="M259.5,45.3c-1,0.1-4.1,0.4-7,0.6C187.1,51.8,125.8,87.1,87,141.3c-21.6,30.1-35.4,64.3-40.7,100.6
	c-1.8,12.7-2.1,16.4-2.1,33.5s0.2,20.9,2.1,33.5c12.5,86.5,74,159.1,157.5,185.9c14.9,4.9,30.7,8.1,48.6,10.1c7,0.7,37.1,0.7,44.1,0
	c31-3.4,57.2-11.1,82.9-24.3c4-2,4.7-2.5,4.1-3c-0.4-0.3-17.2-23-37.4-50.3l-36.8-49.7l-46.1-68.1c-25.4-37.5-46.3-68.2-46.4-68.2
	c-0.2-0.1-0.4,30.3-0.5,67.3c-0.1,64.8-0.2,67.5-1,68.9c-1.2,2.2-2.1,3.1-4,4.1c-1.4,0.7-2.7,0.8-9.4,0.8h-7.8l-2.1-1.3
	c-1.4-0.9-2.3-2-3-3.3l-1-2l0.1-90.2l0.1-90.3l1.4-1.8c0.7-0.9,2.2-2.2,3.3-2.7c1.9-0.9,2.6-1,10.3-1c9.2,0,10.7,0.4,13.1,3
	c0.7,0.7,25.6,38.3,55.5,83.6s70.7,107.2,90.8,137.6l36.5,55.3l1.9-1.3c16.3-10.6,33.6-25.7,47.2-41.5
	c29.1-33.5,47.9-74.2,54.2-117.7c1.8-12.6,2.1-16.4,2.1-33.5s-0.2-20.9-2.1-33.5c-12.5-86.5-74-159.1-157.5-185.9
	c-14.8-4.8-30.4-8.1-47.9-10C293,45.4,263.2,44.9,259.5,45.3z M353.7,184.5c2.2,1.1,3.9,3.2,4.5,5.3c0.4,1.2,0.4,26.2,0.4,82.6
	l-0.1,80.9l-14.3-21.9l-14.3-21.9v-58.9c0-38,0.2-59.4,0.4-60.5c0.7-2.5,2.2-4.5,4.5-5.7c1.8-0.9,2.5-1,9.5-1
	C351,183.6,352.2,183.7,353.7,184.5z"/>
</svg>
