<?xml version="1.0" encoding="utf-8"?>
<!-- Generator: Adobe Illustrator 24.3.0, SVG Export Plug-In . SVG Version: 6.00 Build 0)  -->
<svg version="1.1" xmlns="http://www.w3.org/2000/svg" xmlns:xlink="http://www.w3.org/1999/xlink" x="0px" y="0px"
	 viewBox="0 0 507.2 511.2" style="enable-background:new 0 0 507.2 511.2;" xml:space="preserve">
<style type="text/css">
	.st0{display:none;}
	.st1{display:inline;stroke:#FFFFFF;stroke-miterlimit:10;}
	.st2{display:inline;}
	.st3{font-family:'FilsonSoftBlack';}
	.st4{font-size:330px;}
	.st5{display:inline;fill:#FFFFFF;}
	.st6{display:inline;fill:url(#SVGID_1_);}
	.st7{display:inline;fill:url(#SVGID_2_);}
	.st8{fill:url(#SVGID_3_);}
</style>
<g id="Layer_2" class="st0">
	<rect x="-51.6" y="-31.2" class="st1" width="600.8" height="599.3"/>
</g>
<g id="Layer_1_copy" class="st0">
	<text transform="matrix(1 0 0 1 149.2005 367.621)" class="st2 st3 st4">2</text>
</g>
<g id="_x31__diamond_copy" class="st0">
	<path class="st5" d="M477.9,233.7L276.3,32.2c-12.5-12.5-32.8-12.5-45.3,0L29.5,233.7C17,246.2,17,266.5,29.5,279L231,480.5
		c12.5,12.5,32.8,12.5,45.3,0L477.9,279C490.4,266.5,490.4,246.2,477.9,233.7z"/>
</g>
<g id="_x31__diamond" class="st0">
	<radialGradient id="SVGID_1_" cx="253.6842" cy="256.3421" r="233.563" gradientUnits="userSpaceOnUse">
		<stop  offset="0.4143" style="stop-color:#4B7ABD"/>
		<stop  offset="0.9754" style="stop-color:#4B7ABD;stop-opacity:0.3"/>
	</radialGradient>
	<path class="st6" d="M477.9,233.7L276.3,32.2c-12.5-12.5-32.8-12.5-45.3,0L29.5,233.7C17,246.2,17,266.5,29.5,279L231,480.5
		c12.5,12.5,32.8,12.5,45.3,0L477.9,279C490.4,266.5,490.4,246.2,477.9,233.7z M285.3,369.1c0,10.2-5.9,15.8-16.2,15.8h-19.1
		c-10.2,0-15.8-5.6-15.8-15.8V210.3l-33.7,14.2c-9.6,4.3-17.2,0.3-20.1-9.6l-3.3-9.2c-3-9.6,0.3-16.5,9.2-20.5l60.7-27.1
		c7.6-3.6,13.2-4.3,23.8-4.3c9.2,0,14.5,5.6,14.5,15.8V369.1z"/>
</g>
<g id="_x31__diamond_copy_2" class="st0">
	<linearGradient id="SVGID_2_" gradientUnits="userSpaceOnUse" x1="253.6842" y1="489.905" x2="253.6842" y2="22.7791">
		<stop  offset="0.267" style="stop-color:#4B7ABD"/>
		<stop  offset="0.9751" style="stop-color:#CE4983"/>
	</linearGradient>
	<path class="st7" d="M477.9,233.7L276.3,32.2c-12.5-12.5-32.8-12.5-45.3,0L29.5,233.7C17,246.2,17,266.5,29.5,279L231,480.5
		c12.5,12.5,32.8,12.5,45.3,0L477.9,279C490.4,266.5,490.4,246.2,477.9,233.7z M285.3,369.1c0,10.2-5.9,15.8-16.2,15.8h-19.1
		c-10.2,0-15.8-5.6-15.8-15.8V210.3l-33.7,14.2c-9.6,4.3-17.2,0.3-20.1-9.6l-3.3-9.2c-3-9.6,0.3-16.5,9.2-20.5l60.7-27.1
		c7.6-3.6,13.2-4.3,23.8-4.3c9.2,0,14.5,5.6,14.5,15.8V369.1z"/>
</g>
<g id="_x31__diamond_copy_3">
</g>
<g id="Layer_1">
	<linearGradient id="SVGID_3_" gradientUnits="userSpaceOnUse" x1="253.6842" y1="489.905" x2="253.6842" y2="22.7791">
		<stop  offset="0.267" style="stop-color:#4B7ABD"/>
		<stop  offset="0.9751" style="stop-color:#CE4983"/>
	</linearGradient>
	<path class="st8" d="M477.9,233.7L276.3,32.2c-12.5-12.5-32.8-12.5-45.3,0L29.5,233.7C17,246.2,17,266.5,29.5,279L231,480.5
		c12.5,12.5,32.8,12.5,45.3,0L477.9,279C490.4,266.5,490.4,246.2,477.9,233.7z M338.9,347c0,9.7-5.3,15-15,15h-137
		c-9.1,0-14.7-4.7-16.3-13.8l-0.6-4.1c-1.3-7.8,0.9-13.8,7.2-19.4l75.9-68.7c16.9-14.7,29.5-28.8,29.5-47
		c0-18.8-14.7-29.8-34.5-29.8c-18.8,0-27.9,7.8-32,16.9c-4.1,8.5-7.2,13.2-16.3,13.2h-17.2c-10,0-16.3-6-14.1-15.7
		c6-27.6,28.8-54.5,80.6-54.5c48,0,80.6,27.3,80.6,70.9c0,31.7-19.8,55.2-40.8,73l-47.3,40.1l0.3,1.3c12.2-1.3,43-1.9,45.5-1.9h36.7
		c9.7,0,15,5.6,15,15.4V347z"/>
</g>
</svg>
