<?xml version="1.0" encoding="utf-8"?>
<!-- Generator: Adobe Illustrator 23.1.1, SVG Export Plug-In . SVG Version: 6.00 Build 0)  -->
<svg version="1.1" id="Layer_1" xmlns="http://www.w3.org/2000/svg" xmlns:xlink="http://www.w3.org/1999/xlink" x="0px" y="0px"
	 viewBox="0 0 1920 815.7" style="enable-background:new 0 0 1920 815.7;" xml:space="preserve">
<style type="text/css">
	.st0{fill:#8000DB;}
	.st1{fill:#008298;}
	.st2{fill:#580098;}
	.st3{fill:#98005E;}
	.st4{fill:#FF009E;}
	.st5{fill:#00BEDD;}
	.st6{fill:#FF9900;}
	.st7{fill:#FFE001;}
	.st8{fill:#FFFFFF;}
</style>
<g>
	<g>
		<path class="st0" d="M108.4,419.1c-2.9-16.9-6.5-33.3-14.8-46.4c-11.3-17.8-31.1-29.9-70.3-30.2l-0.6,22.3
			c13.9-0.4,27.3,0.9,38.6,8.1c9.7,6.1,17.8,16.2,24,33c-34.1-11.6-53.4-8.1-67.1,0.7c-7.1,4.6-12.7,10.7-18.2,16.9l15.5,14.2
			c0.9-1.3,1.9-2.5,2.7-3.6c16.6-19.7,35.9-19.1,56.3-8.2c-44.1,21.3-51.2,58.6-48.9,85.5c2,0.3,21.7,0,21.7,0
			c-1.9-26.2,16.8-61.3,55.6-71.9l5.8-11.9L108.4,419.1z"/>
		<path class="st1" d="M398.8,188.2c65.4-90.7,97.6-135.7,71.8-157.5c-17.1-14.3-40.2-4.2-77.5,23.7c-1.3,29.8-8.5,72.2-18.1,128.5
			L398.8,188.2z"/>
		<path class="st2" d="M440.2,732.1h-24c-0.6,34.3,0.3,69.6-36.3,80.9c1.2,0.1,2.5,0.3,3.9,0.4c3.9,0.4,7.7,0.1,11.4-0.7
			C440.7,801.1,439.5,766.1,440.2,732.1z"/>
		<path class="st3" d="M466.1,732.1l-25.3-59.9h23.6l-19.8-56.6h-32.8l15.3,56.6h-18.2l19.5,59.9h11.7H466.1z"/>
		<path class="st0" d="M379.9,813c36.6-11.3,35.7-46.4,36.3-80.9h-86.9C328.8,783.2,347.2,808.1,379.9,813z"/>
		<path class="st4" d="M408.8,672.2h18.1l-15.2-56.4l-88.4-0.4L302.8,674l22.4,1.7l-22.4,56.4h125.7L408.8,672.2z"/>
		<path class="st3" d="M225.5,674.4L202.1,615l-32.8-0.1l16.2,58.3h-18.5l20,60.5l41.5,0.4l-28.9-59.9L225.5,674.4z"/>
		<path class="st4" d="M166.8,673h18.5l-16.1-58.3l-89.7-0.4l-21.7,60.5l22.9,1.7l-22.9,56.9l128.9,0.3L166.8,673z"/>
		<path class="st5" d="M371.5,0.8c-35.2-8.5-55.7,47.7-106.8,157.5L375,182.8c9.5-56.3,16.8-98.7,18.1-128.5
			C394.5,22.5,388.9,5.2,371.5,0.8z"/>
		<path class="st6" d="M438.9,557.8l29.1,1.9l-31-61.9h25.5l-23-56.3h-19.7h-17.1l20.7,56.3h-23l27.9,61.9l-26.2-1.9l27.9,58
			l39.8,0.1L438.9,557.8z"/>
		<path class="st1" d="M468,383.5l-21.4-59.9h-41.4l17.6,59.9h-25.5l22.4,58.2h44.4l-27.3-58.2H468z"/>
		<path class="st7" d="M264.9,158.4C264.7,158.7,264.7,158.4,264.9,158.4l-49,97.5l27.1,0.6l-32.5,67.1h235.8l-30.5-12.9
			c-4.6-1.9-7.4-5.6-6.2-8.1c0.1-0.3,0.3-0.4,0.4-0.6c1.4-2,5.6-2.3,9.8-0.6l1.3,0.6l21.4,9.1l18.5,7.8V202.1L264.9,158.4z"/>
		<path class="st8" d="M383.5,269.6c14.8,0,26.9-12,26.9-27.1c0-14.9-12-27.1-26.9-27.1c-14.8,0-26.9,12-26.9,27.1
			C356.6,257.6,368.8,269.6,383.5,269.6z M383.5,229.1c7.4,0,13.5,6.1,13.5,13.5c0,7.4-6.1,13.5-13.5,13.5s-13.5-6.1-13.5-13.5
			C370.1,235.2,376.1,229.1,383.5,229.1z"/>
		<path d="M384.4,256c7.4-0.4,13-6.8,12.6-14.3c-0.4-7.4-6.8-13.2-14.3-12.6c-7.4,0.4-13,6.8-12.6,14.3
			C370.5,250.8,377,256.5,384.4,256z"/>
		<path d="M460.8,323.6v-4.8l-39.9-17.1l-1.3-0.6c-4.2-1.7-8.2-1.4-9.8,0.6c-0.1,0.1-0.3,0.4-0.4,0.6c-1,2.5,1.7,6.2,6.2,8.1
			l30.5,12.9h0.6L460.8,323.6z"/>
		<path class="st5" d="M397.5,383.5h25.3l-17.5-59.9H239l-25.2,59.9h25.3l-23.9,58h0.3v0.1c0.6,0,1.2,0,1.7,0h185.3h17.2
			L397.5,383.5z"/>
		<path class="st7" d="M215.1,441.5l-106.5-14.3l-32.5,66.3h21.6c-2,2.7-4.3,5.8-6.4,9l29.9,28.1l38.8-36.7l37.8,37.6l38.8-36.7
			l38.8,36.7l37.8-37.6l1.2,1.2l37.5,35.4l38.8-36.7l14.8,14.6l-4.6-10.4h23l-20.7-56.4h-89.1h-98.4h-0.3"/>
		<path class="st7" d="M402.2,557.8l26.2,1.7l-5.4-11.7l-32.7-32.7l-38.6,38.8l-38.8-38.8L274.3,554l-37.9-37.9l-38.8,36.7
			l-37.5-37.3l-38.6,38.8l-38.6-38.6c-2.5,4.2-17.6,30.5-22.9,40.5l29.5,1.7l-26.2,56.4l367.2,1.6L402.2,557.8z"/>
		<path d="M405.4,508.2l-14.8-14.8l-38.8,36.7l-38.8-36.7L275.3,531l-38.8-36.7L197.8,531L160,493.4l-38.8,36.7l-29.9-28.1
			c-2.7,4.2-5.8,8.5-8.5,13.3l38.6,38.6l38.6-38.8l37.5,37.3l38.8-36.7l37.9,37.9l38.8-38.8l38.8,38.8l38.6-38.8l32.7,32.7
			L405.4,508.2z"/>
		<path class="st2" d="M174.9,733.4c-0.6,34.6,0.4,70-36.3,81.4c2.2,0.3,4.5,0.6,6.8,0.7c1.9,0.1,4.1,0,5.9-0.4
			c1.7-0.4,3.5-0.9,5.1-1.3c2.3-0.7,4.8-1.4,6.8-2.2c1.4-0.6,2.7-1.2,4.2-1.7c0.9-0.4,1.7-0.9,2.5-1.3s1.6-0.9,2.3-1.3
			c1.2-0.7,2.3-1.4,3.5-2.2c0.7-0.4,1.3-1,2-1.4c1.4-1.2,2.9-2.3,4.2-3.6c1.3-1.3,2.6-2.7,3.9-4.2c0.4-0.6,0.9-1,1.3-1.6
			c0.6-0.7,1-1.4,1.4-2.2c0.9-1.4,1.7-3,2.5-4.5c0.4-0.7,0.7-1.6,1.2-2.3c0.1-0.4,0.4-0.9,0.6-1.3c0.3-0.6,0.4-1.3,0.7-1.9
			c0.1-0.3,0.3-0.6,0.3-1c0.4-1.3,0.9-2.6,1.2-4.1c0-0.3,0.1-0.6,0.1-0.7c0.3-0.9,0.4-1.7,0.6-2.6c0-0.1,0.1-0.4,0.1-0.6
			c0.1-1,0.4-2,0.6-3.2c0.1-0.6,0.1-1.2,0.3-1.7c0.1-0.6,0.1-1.3,0.3-1.9c0.4-3,0.7-5.8,0.9-9c0.3-3.8,0.4-7.4,0.4-11.1
			c0.1-4.1,0.1-8,0.3-12L174.9,733.4z"/>
		<path class="st0" d="M87.8,733.3c-0.1,10,0.4,19,1.7,27.1c0.4,3.2,1,6.1,1.7,9c0.4,1.9,1,3.8,1.4,5.5c7.5,24,23.1,36.6,45.6,40.1
			c36.7-11.4,35.7-46.9,36.3-81.4H87.8V733.3z"/>
		<path class="st3" d="M548.4,264.3c-8.8,22.3-38,40.4-88,44.8v9.7v4.8c3.5-0.1,6.5-0.4,9.8-0.6c3.9-0.3,7.5-0.7,11.1-1.3
			c3.3-0.4,6.4-1,9.4-1.6c13.5-2.7,24.6-6.9,33.6-12.2c1.9-1.2,3.9-2.3,5.5-3.6c0.9-0.6,1.6-1.2,2.5-1.9c2.3-1.9,4.6-4.1,6.5-6.1
			c1.3-1.3,2.3-2.7,3.5-4.3c2.5-3.8,4.5-7.5,5.6-11.4C549.4,275.4,549.6,269.9,548.4,264.3z"/>
		<path class="st4" d="M471.5,204.7c-3.5-0.9-6.9-1.9-10.7-2.6v30.4v30.4v46.4c49.8-4.5,79-22.7,88-44.8
			C544.2,241.6,518.5,217.8,471.5,204.7z"/>
	</g>
	<g>
		<path d="M946,308.5c17.1,15,25.8,35.7,25.8,62.4c0,26.6-8.5,47.3-25.8,62.4c-17.1,15-40.8,22.6-71,22.6h-55.4V549h-55V286.1h110.4
			C905.2,286.1,928.8,293.6,946,308.5z M915.9,370.9c0-27.6-16.5-41.4-49.3-41.4h-47v82.9h47C899.4,412.4,915.9,398.5,915.9,370.9z"
			/>
		<path d="M997.9,292.1c0-19.7,11.3-29.5,33.9-29.5s33.9,9.8,33.9,29.5c0,19.4-11.3,29.1-33.9,29.1S997.9,311.4,997.9,292.1z
			 M1058.8,549h-54.5V349.8h54.5V549z"/>
		<path d="M1275.4,364.5c13.2,12.4,19.7,30.4,19.7,53.8V549h-54.5V433.8c0-29.9-12-45-35.9-45c-12.7,0-23.4,4.5-32.3,13.3
			c-8.8,9-13.2,22.7-13.2,41.2V549h-54.5V349.8h49l2,37c6.4-13.6,15.3-23.7,27.1-30.7c11.7-6.9,25.2-10.4,40.7-10.4
			C1244.8,345.9,1262.2,352.1,1275.4,364.5z"/>
		<path d="M1534,513.5l-3.2,33.9c-6.9,3.5-15.5,5.2-25.9,5.2c-11.7-0.3-21.7-2.7-30.1-7.5c-8.4-4.8-14-11.7-16.9-20.7
			c-6.1,9-15,16.1-26.6,21.1c-11.7,5.1-23.9,7.5-36.6,7.5c-20.7,0-36.9-4.6-48.5-13.9c-11.6-9.3-17.4-22.6-17.4-39.8
			c0-14.6,4.8-26.6,14.2-36c9.4-9.4,23.1-16.1,41.2-19.7l68.6-13.9v-7.5c0-11.1-3.2-20-9.7-26.5c-6.5-6.5-15-9.7-25.8-9.7
			c-21.8,0-35.9,10.8-42.2,32.7l-46.6-14.3c4.8-18.1,14.9-32.3,30.2-42.7c15.3-10.4,35.7-15.5,60.9-15.5c26.8,0,48,6.4,63.8,19
			c15.6,12.6,23.4,30.8,23.4,54.8v80.3c0,10.1,4.8,15.2,14.3,15.2C1525.8,515.6,1530.1,514.8,1534,513.5z M1440.3,505.2
			c8.4-6.1,12.6-15.9,12.6-29.5v-12.3l-41.8,8.4c-9.8,1.9-16.9,4.3-21.1,7.5c-4.2,3.2-6.4,8.1-6.4,14.8c0,6.4,2.5,11.3,7.2,14.9
			c4.8,3.6,10.7,5.4,17.9,5.4C1421.3,514.4,1431.9,511.2,1440.3,505.2z"/>
		<path d="M1693.7,536.7c-6.7,5.1-14.6,9-24.2,12c-9.4,2.9-19.4,4.3-30.1,4.3c-45.1,0-67.7-20.1-67.7-60.2V390.4h-36.6v-40.7h36.6
			v-45.9l54.5-15.2v60.9h63.8v40.8h-63.8V484c0,18.4,9.1,27.5,27.5,27.5c12,0,22.3-3.8,31.1-11.1L1693.7,536.7z"/>
		<path d="M1920,513.5l-3.2,33.9c-6.9,3.5-15.5,5.2-25.9,5.2c-11.7-0.3-21.7-2.7-30.1-7.5s-14-11.7-16.9-20.7
			c-6.1,9-15,16.1-26.6,21.1c-11.7,5.1-23.9,7.5-36.6,7.5c-20.7,0-36.9-4.6-48.5-13.9c-11.6-9.3-17.4-22.6-17.4-39.8
			c0-14.6,4.8-26.6,14.2-36c9.4-9.4,23.1-16.1,41.2-19.7l68.6-13.9v-7.5c0-11.1-3.2-20-9.7-26.5c-6.5-6.5-15-9.7-25.8-9.7
			c-21.8,0-35.9,10.8-42.2,32.7l-46.6-14.3c4.8-18.1,14.9-32.3,30.2-42.7c15.3-10.4,35.7-15.5,60.9-15.5c26.8,0,48,6.4,63.8,19
			c15.6,12.6,23.4,30.8,23.4,54.8v80.3c0,10.1,4.8,15.2,14.3,15.2C1911.8,515.6,1916.1,514.8,1920,513.5z M1826.3,505.2
			c8.4-6.1,12.6-15.9,12.6-29.5v-12.3l-41.8,8.4c-9.8,1.9-16.9,4.3-21.1,7.5c-4.2,3.2-6.4,8.1-6.4,14.8c0,6.4,2.5,11.3,7.2,14.9
			c4.8,3.6,10.7,5.4,17.9,5.4C1807.3,514.4,1817.9,511.2,1826.3,505.2z"/>
	</g>
</g>
</svg>
