<svg id="Capa_1" enable-background="new 0 0 511.691 511.691" height="512" viewBox="0 0 511.691 511.691" width="512" xmlns="http://www.w3.org/2000/svg" xmlns:xlink="http://www.w3.org/1999/xlink"><linearGradient id="lg1"><stop offset="0" stop-color="#ffc8d1"/><stop offset="1" stop-color="#fff6f7"/></linearGradient><linearGradient id="SVGID_1_" gradientTransform="matrix(.707 .707 -.707 .707 256.119 -108.176)" gradientUnits="userSpaceOnUse" x1="257.209" x2="257.209" xlink:href="#lg1" y1="613.199" y2="381.986"/><linearGradient id="lg2"><stop offset="0" stop-color="#fd3a84"/><stop offset="1" stop-color="#ffa68d"/></linearGradient><linearGradient id="SVGID_2_" gradientTransform="matrix(.707 .707 -.707 .707 256.119 -108.176)" gradientUnits="userSpaceOnUse" x1="317.363" x2="317.363" xlink:href="#lg2" y1="396.986" y2="396.986"/><linearGradient id="SVGID_3_" gradientTransform="matrix(.707 .707 -.707 .707 256.119 -108.176)" gradientUnits="userSpaceOnUse" x1="126.26" x2="126.26" xlink:href="#lg1" y1="381.942" y2="170.49"/><linearGradient id="SVGID_4_" gradientTransform="matrix(.707 .707 -.707 .707 256.119 -108.176)" gradientUnits="userSpaceOnUse" x1="390.104" x2="390.104" xlink:href="#lg1" y1="381.986" y2="168.693"/><linearGradient id="SVGID_5_" gradientTransform="matrix(.707 .707 -.707 .707 256.119 -108.176)" gradientUnits="userSpaceOnUse" x1="257.209" x2="257.209" xlink:href="#lg1" y1="66.334" y2="-97.865"/><linearGradient id="SVGID_6_" gradientTransform="matrix(.707 .707 -.707 .707 256.119 -108.176)" gradientUnits="userSpaceOnUse" x1="257.209" x2="257.209" xlink:href="#lg2" y1="411.986" y2="5.186"/><linearGradient id="SVGID_7_" gradientTransform="matrix(.707 .707 -.707 .707 256.119 -108.176)" gradientUnits="userSpaceOnUse" x1="257.209" x2="257.209" xlink:href="#lg1" y1="231.986" y2="81.986"/><g id="startup_2_"><g><path d="m4.395 507.295c-3.48-3.48-5.034-8.452-4.154-13.31 3.315-18.106 36.13-124.733 61.58-150.182 29.241-29.241 76.825-29.241 106.066 0s29.241 76.825 0 106.066c-25.45 25.45-132.077 58.265-150.182 61.58-4.857.88-9.829-.673-13.31-4.154z" fill="url(#SVGID_1_)"/></g><g><path d="m199.708 396.836.218.218z" fill="url(#SVGID_2_)"/><g><g><g><path d="m40.64 216.493c-1.44-1.44-2.59-3.19-3.356-5.158-2.144-5.542-.87-11.829 3.325-16.024 111.338-111.338 182.104-89.462 185.056-88.478l2.362.663c4.806 1.388 8.639 5.075 10.151 9.882 1.523 4.775.549 9.995-2.59 13.921-27.21 33.922-54.255 77.499-80.389 129.506-2.175 4.35-6.349 7.365-11.145 8.1-4.816.715-9.364-.787-13.061-4.423-39.733-42.344-78.731-43.514-80.368-43.576-3.822-.177-7.375-1.803-9.985-4.413z" fill="url(#SVGID_3_)"/></g></g><g><g><path d="m297.922 473.837c-2.61-2.61-4.216-6.142-4.381-9.975-.083-1.719-2.527-42.468-46.3-82.74-3.677-2.911-5.365-8.204-4.682-13.092.673-4.879 3.698-9.105 8.09-11.321 53.043-26.796 97.106-54.328 130.936-81.818 3.832-3.107 8.939-4.133 13.662-2.766 4.734 1.398 8.494 5.013 10.037 9.664l2.331 6.992c.984 2.952 22.86 73.718-88.478 185.056-4.226 4.226-10.544 5.531-16.096 3.356-1.959-.776-3.689-1.926-5.119-3.356z" fill="url(#SVGID_4_)"/></g></g></g><path d="m497.753 140.793-111.507-25.031-15.348-101.824c2.333-.637 4.668-1.273 7.213-1.697 62.155-13.788 116.672-12.304 119.005-12.092 7.85.211 14.215 6.576 14.426 14.426.212 2.333 1.696 56.85-12.092 119.004-.424 2.546-1.06 4.88-1.697 7.214z" fill="url(#SVGID_5_)"/><path d="m433.053 269.557c-9.97 9.97-21.001 19.727-32.669 28.85-35.424 28.637-81.246 57.487-136.187 85.277-34.154 16.758-57.701 26.728-58.761 26.941-5.728 2.333-12.092 1.06-16.335-3.183l-84.853-84.853c-4.243-4.243-5.516-10.607-3.395-16.122.638-1.06 10.396-25.244 27.578-59.398 26.94-53.669 55.155-98.853 83.792-134.702 9.334-11.879 19.516-23.335 29.91-33.73 29.911-29.911 73.186-51.548 128.764-64.7l126.855 126.855c-13.151 55.579-34.788 98.853-64.699 128.765z" fill="url(#SVGID_6_)"/></g><g><path d="m273.954 237.737c-29.241-29.241-29.241-76.825 0-106.066s76.825-29.241 106.066 0 29.241 76.825 0 106.066-76.825 29.241-106.066 0z" fill="url(#SVGID_7_)"/></g></g></svg>