<?xml version="1.0" encoding="UTF-8"?>
<svg xmlns="http://www.w3.org/2000/svg" xmlns:xlink="http://www.w3.org/1999/xlink" width="144pt" height="144pt" viewBox="0 0 144 144" version="1.1">
<g id="surface2709556">
<path style=" stroke:none;fill-rule:nonzero;fill:rgb(100%,100%,100%);fill-opacity:1;" d="M 134.15625 30.914062 C 133.273438 30 131.910156 29.738281 130.75 30.273438 L 130.257812 30.496094 C 129.839844 30.691406 129.421875 30.882812 129.003906 31.070312 C 130.222656 29.125 131.191406 27.042969 131.863281 24.886719 C 132.234375 23.699219 131.828125 22.402344 130.84375 21.632812 C 129.859375 20.863281 128.503906 20.785156 127.441406 21.433594 C 124.015625 23.515625 120.730469 25.011719 117.328125 26.054688 C 112.199219 21.078125 105.214844 18 97.5 18 C 81.757812 18 69 30.757812 69 46.5 C 69 46.515625 69 47.109375 69 48 L 66.003906 47.761719 C 36.835938 44.308594 28.53125 24.691406 28.183594 23.84375 C 27.628906 22.433594 26.398438 21.40625 24.910156 21.097656 C 23.429688 20.78125 21.890625 21.246094 20.816406 22.316406 C 20.222656 22.914062 15 28.441406 15 39 C 15 46.523438 18.355469 52.625 22.695312 57.371094 C 20.671875 56.140625 19.492188 55.140625 19.464844 55.113281 C 18.082031 53.90625 16.101562 53.65625 14.457031 54.488281 C 12.820312 55.324219 11.851562 57.074219 12.019531 58.90625 C 12.074219 59.539062 13.351562 71.546875 27.222656 80.613281 L 24.691406 81.070312 C 23.160156 81.351562 21.878906 82.402344 21.308594 83.855469 C 20.742188 85.3125 20.964844 86.953125 21.898438 88.199219 C 22.214844 88.621094 28.074219 96.238281 40.796875 100.621094 C 34.003906 102.886719 24.664062 105 13.5 105 C 11.734375 105 10.132812 106.03125 9.402344 107.640625 C 8.671875 109.246094 8.949219 111.136719 10.113281 112.460938 C 10.597656 113.015625 22.304688 126 52.5 126 C 102.640625 126 126 79.453125 126 48 L 126 46.5 C 126 46.054688 125.953125 45.621094 125.933594 45.183594 C 132.210938 39.117188 134.570312 34.566406 134.683594 34.339844 C 135.253906 33.199219 135.042969 31.828125 134.15625 30.914062 Z M 134.15625 30.914062 "/>
</g>
</svg>
